<svg fill="none" height="48" viewBox="0 0 48 48" width="48" xmlns="http://www.w3.org/2000/svg" xmlns:xlink="http://www.w3.org/1999/xlink"><filter id="a" color-interpolation-filters="sRGB" filterUnits="userSpaceOnUse" height="54" width="48" x="0" y="-3"><feFlood flood-opacity="0" result="BackgroundImageFix"/><feBlend in="SourceGraphic" in2="BackgroundImageFix" mode="normal" result="shape"/><feColorMatrix in="SourceAlpha" result="hardAlpha" type="matrix" values="0 0 0 0 0 0 0 0 0 0 0 0 0 0 0 0 0 0 127 0"/><feOffset dy="-3"/><feGaussianBlur stdDeviation="1.5"/><feComposite in2="hardAlpha" k2="-1" k3="1" operator="arithmetic"/><feColorMatrix type="matrix" values="0 0 0 0 0 0 0 0 0 0 0 0 0 0 0 0 0 0 0.1 0"/><feBlend in2="shape" mode="normal" result="effect1_innerShadow_3051_46963"/><feColorMatrix in="SourceAlpha" result="hardAlpha" type="matrix" values="0 0 0 0 0 0 0 0 0 0 0 0 0 0 0 0 0 0 127 0"/><feOffset dy="3"/><feGaussianBlur stdDeviation="1.5"/><feComposite in2="hardAlpha" k2="-1" k3="1" operator="arithmetic"/><feColorMatrix type="matrix" values="0 0 0 0 1 0 0 0 0 1 0 0 0 0 1 0 0 0 0.1 0"/><feBlend in2="effect1_innerShadow_3051_46963" mode="normal" result="effect2_innerShadow_3051_46963"/><feColorMatrix in="SourceAlpha" result="hardAlpha" type="matrix" values="0 0 0 0 0 0 0 0 0 0 0 0 0 0 0 0 0 0 127 0"/><feMorphology in="SourceAlpha" operator="erode" radius="1" result="effect3_innerShadow_3051_46963"/><feOffset/><feComposite in2="hardAlpha" k2="-1" k3="1" operator="arithmetic"/><feColorMatrix type="matrix" values="0 0 0 0 0.0627451 0 0 0 0 0.0941176 0 0 0 0 0.156863 0 0 0 0.24 0"/><feBlend in2="effect2_innerShadow_3051_46963" mode="normal" result="effect3_innerShadow_3051_46963"/></filter><filter id="b" color-interpolation-filters="sRGB" filterUnits="userSpaceOnUse" height="42" width="36" x="6" y="5.25"><feFlood flood-opacity="0" result="BackgroundImageFix"/><feColorMatrix in="SourceAlpha" result="hardAlpha" type="matrix" values="0 0 0 0 0 0 0 0 0 0 0 0 0 0 0 0 0 0 127 0"/><feMorphology in="SourceAlpha" operator="erode" radius="1.5" result="effect1_dropShadow_3051_46963"/><feOffset dy="2.25"/><feGaussianBlur stdDeviation="2.25"/><feComposite in2="hardAlpha" operator="out"/><feColorMatrix type="matrix" values="0 0 0 0 0.141176 0 0 0 0 0.141176 0 0 0 0 0.141176 0 0 0 0.1 0"/><feBlend in2="BackgroundImageFix" mode="normal" result="effect1_dropShadow_3051_46963"/><feBlend in="SourceGraphic" in2="effect1_dropShadow_3051_46963" mode="normal" result="shape"/></filter><linearGradient id="c" gradientUnits="userSpaceOnUse" x1="24" x2="26" y1=".000001" y2="48"><stop offset="0" stop-color="#fff" stop-opacity="0"/><stop offset="1" stop-color="#fff" stop-opacity=".12"/></linearGradient><linearGradient id="d" gradientUnits="userSpaceOnUse" x1="23.9452" x2="23.9452" y1="9" y2="39"><stop offset="0" stop-color="#fff" stop-opacity=".8"/><stop offset="1" stop-color="#fff" stop-opacity=".5"/></linearGradient><linearGradient id="e" gradientUnits="userSpaceOnUse" x1="24" x2="24" y1="0" y2="48"><stop offset="0" stop-color="#fff" stop-opacity=".12"/><stop offset="1" stop-color="#fff" stop-opacity="0"/></linearGradient><clipPath id="f"><rect height="48" rx="12" width="48"/></clipPath><clipPath id="g"><path d="m9 6h30v36h-30z"/></clipPath><g filter="url(#a)"><g clip-path="url(#f)"><rect fill="#ff4405" height="48" rx="12" width="48"/><path d="m0 0h48v48h-48z" fill="url(#c)"/><g clip-path="url(#g)" fill="url(#d)" filter="url(#b)"><path d="m27.8155 9.7904-2.9497-.7904-2.4858 9.2772-2.2443-8.37552-2.9498.79042 2.4248 9.0491-6.0395-6.0395-2.1594 2.1594 6.6245 6.6247-8.24981-2.2106-.7904 2.9498 9.01401 2.4153c-.1032-.4452-.1578-.909-.1578-1.3855 0-3.3732 2.7345-6.1077 6.1077-6.1077s6.1077 2.7345 6.1077 6.1077c0 .4735-.0539.9344-.1558 1.3769l8.192 2.195.7903-2.9497-9.0498-2.4249 8.2504-2.2107-.7904-2.9498-9.0495 2.4248 6.0395-6.0395-2.1594-2.1593-6.5327 6.5326z"/><path d="m29.9032 25.6661c-.2529 1.0692-.7868 2.0297-1.5194 2.7993l5.9348 5.9348 2.1594-2.1594z"/><path d="m28.3239 28.5274c-.7415.7573-1.6784 1.3224-2.7292 1.6136l2.1596 8.0596 2.9497-.7905z"/><path d="m25.4845 30.1705c-.4875.1254-.9984.192-1.525.192-.5642 0-1.1105-.0765-1.6291-.2197l-2.1615 8.0669 2.9497.7903z"/><path d="m22.2261 30.113c-1.0347-.3057-1.955-.878-2.6813-1.6374l-5.9494 5.9494 2.1594 2.1594z"/><path d="m19.4957 28.423c-.7138-.7643-1.2338-1.712-1.4813-2.7647l-8.21877 2.2022.79037 2.9498z"/></g></g><rect height="46" rx="11" stroke="url(#e)" stroke-width="2" width="46" x="1" y="1"/></g></svg>